<svg xmlns="http://www.w3.org/2000/svg" viewBox="0 0 500 500"><g id="freepik--background-complete--inject-57"><path d="M279.13,92.12c.3-3,2.39-4.65,5-4.39s4.31,2.28,4,5.3-2.39,4.66-5,4.39S278.82,95.17,279.13,92.12ZM294.41,89l3.6.36L284.3,105.65l-3.6-.37Zm-9.33,3.72c.18-1.77-.38-2.53-1.23-2.62s-1.54.55-1.72,2.33.42,2.54,1.22,2.62S284.9,94.5,285.08,92.72Zm5.56,8.9c.31-3,2.36-4.66,5-4.4s4.32,2.28,4,5.3-2.39,4.66-5,4.4S290.33,104.67,290.64,101.62Zm5.95.6c.18-1.78-.4-2.54-1.23-2.62s-1.54.55-1.72,2.32.4,2.54,1.22,2.62S296.41,104,296.59,102.22Z" style="fill:#e0e0e0"></path><path d="M380,78.8c-1.1-6.55,1.95-11.61,7.52-12.55s10.05,2.8,11.16,9.41-1.89,11.61-7.47,12.55S381.14,85.36,380,78.8Zm15-2.52c-.81-4.83-3.42-7.34-6.93-6.75s-5.14,3.88-4.34,8.64,3.48,7.34,6.93,6.76S395.85,81.11,395,76.28Zm16.84-13.76,4.42-.74-20.71,44.85-4.43.74Zm-3.13,31c-1.1-6.55,1.89-11.6,7.46-12.54s10.12,2.85,11.22,9.4S425.48,102,419.9,102.9,409.85,100,408.75,93.48ZM423.69,91c-.8-4.77-3.48-7.33-6.93-6.75s-5.15,3.82-4.33,8.65,3.42,7.34,6.92,6.75S424.49,95.74,423.69,91Z" style="fill:#e0e0e0"></path><path d="M73.63,218.29c-1.8-4-.35-7.62,3.09-9.15s7.1-.25,8.91,3.79.35,7.62-3.12,9.17S75.45,222.36,73.63,218.29Zm8-3.55c-1.06-2.38-2.31-2.94-3.45-2.43s-1.55,1.82-.49,4.19,2.38,2.9,3.45,2.42S82.64,217.11,81.58,214.74Zm9.1-11.48,4.81-2.15L90,231.63l-4.81,2.15Zm4.38,18.68c-1.81-4-.39-7.6,3.09-9.15s7.1-.25,8.9,3.79.36,7.62-3.11,9.17S96.88,226,95.06,221.94Zm8-3.55c-1.06-2.37-2.35-2.92-3.45-2.43s-1.55,1.82-.49,4.19,2.34,2.92,3.45,2.43S104.07,220.76,103,218.39Z" style="fill:#e0e0e0"></path><path d="M446.32,296.7l5.08,1.4-23.66,20.06-5.08-1.4Zm-22.72.77c1.17-4.27,4.56-6.1,8.2-5.11s5.64,4.33,4.47,8.6-4.57,6.1-8.24,5.09S422.42,301.78,423.6,297.47Zm8.4,2.31c.69-2.5.07-3.73-1.12-4.06s-2.36.41-3.05,2.92,0,3.75,1.12,4.06S431.31,302.29,432,299.78Zm5.83,14.13c1.17-4.27,4.53-6.12,8.2-5.11s5.64,4.32,4.46,8.59-4.56,6.11-8.23,5.1S436.64,318.21,437.83,313.91Zm8.39,2.31c.69-2.51,0-3.75-1.12-4.07s-2.35.42-3,2.92,0,3.75,1.12,4.07S445.54,318.72,446.22,316.22Z" style="fill:#e0e0e0"></path><path d="M254.1,183c-.08-2,1-3.32,2.73-3.39s2.92,1.19,3,3.18-1,3.32-2.74,3.39S254.17,185,254.1,183Zm4.32-.16c-.05-1.33-.62-2.07-1.55-2s-1.44.82-1.39,2.14.66,2.06,1.55,2S258.47,184.15,258.42,182.82Zm5.59-3.38,1.68-.06L258,191.65l-1.68.06Zm-1.85,8.89c-.08-2,1-3.33,2.73-3.39s2.92,1.2,3,3.17-1,3.33-2.75,3.39S262.23,190.29,262.16,188.33Zm4.32-.17c-.05-1.31-.64-2.06-1.55-2s-1.44.81-1.39,2.14.64,2.07,1.55,2S266.53,189.48,266.48,188.16Z" style="fill:#e0e0e0"></path><path d="M441.35,183.57c-.08-2,1-3.32,2.73-3.39s2.92,1.2,3,3.18-1,3.32-2.74,3.39S441.42,185.54,441.35,183.57Zm4.32-.16c-.05-1.33-.62-2.06-1.55-2s-1.44.83-1.39,2.14.66,2.06,1.55,2S445.72,184.74,445.67,183.41Zm5.59-3.38,1.68-.06-7.72,12.27-1.68.07Zm-1.85,8.89c-.08-2,1-3.33,2.73-3.39s2.92,1.21,3,3.17-1,3.33-2.74,3.39S449.48,190.88,449.41,188.92Zm4.32-.16c-.05-1.32-.64-2.07-1.55-2s-1.44.8-1.39,2.14.64,2.06,1.55,2S453.78,190.07,453.73,188.76Z" style="fill:#e0e0e0"></path><polygon points="291.26 144.78 299.11 149.08 291.26 153.37 286.96 161.23 282.66 153.37 274.81 149.08 282.66 144.78 286.96 136.93 291.26 144.78" style="fill:#ebebeb"></polygon><polygon points="267.29 133.94 269.97 135.4 267.29 136.87 265.83 139.54 264.37 136.87 261.69 135.4 264.37 133.94 265.83 131.26 267.29 133.94" style="fill:#ebebeb"></polygon><polygon points="241.19 203.77 243.86 205.23 241.19 206.69 239.73 209.37 238.26 206.69 235.59 205.23 238.26 203.77 239.73 201.09 241.19 203.77" style="fill:#ebebeb"></polygon><polygon points="394.08 139.72 398.91 142.36 394.08 145 391.44 149.83 388.8 145 383.97 142.36 388.8 139.72 391.44 134.89 394.08 139.72" style="fill:#ebebeb"></polygon><polygon points="429.25 210.42 433.62 213.77 428.44 215.63 425.09 220 423.22 214.82 418.86 211.47 424.04 209.6 427.39 205.24 429.25 210.42" style="fill:#ebebeb"></polygon><polygon points="355.6 167.99 358.97 169.84 355.6 171.68 353.76 175.05 351.91 171.68 348.54 169.84 351.91 167.99 353.76 164.62 355.6 167.99" style="fill:#ebebeb"></polygon></g><g id="freepik--Plant--inject-57"><path d="M421,426.81a9.68,9.68,0,0,1,5,5.67,17.05,17.05,0,0,1,.67,7.68c-.57,5-3.4,10-6.45,14-4.2-3.66-5.16-10.05-5.45-13.32-.45-5.18,1.87-14.8,6.23-14" style="fill:#292727"></path><path d="M425.09,462.39a8.26,8.26,0,0,1,2.66-7.84,11,11,0,0,1,8.07-2.52,4.62,4.62,0,0,1,3.55,1.59,3.55,3.55,0,0,1,.05,3.58,7.24,7.24,0,0,1-2.64,2.6c-3.64,2.28-7.58,3.82-11.69,2.59" style="fill:#292727"></path><path d="M419.71,477.67a5,5,0,0,1,.15-1c.13-.72.3-1.65.5-2.77a29,29,0,0,1,2.86-8.84,17.76,17.76,0,0,1,6.35-6.75,12,12,0,0,1,2.58-1.14,6.28,6.28,0,0,1,.75-.19.74.74,0,0,1,.26,0,18.89,18.89,0,0,0-3.46,1.59,18.28,18.28,0,0,0-6.16,6.7,31,31,0,0,0-2.92,8.72c-.26,1.16-.47,2.1-.63,2.75A6.42,6.42,0,0,1,419.71,477.67Z" style="fill:#263238"></path><path d="M419.86,434.3a1.72,1.72,0,0,1,.06.44c0,.34,0,.76.07,1.29.06,1.11.13,2.73.19,4.73.13,4,.23,9.51.21,15.61s-.18,11.62-.34,15.61c-.09,2-.17,3.61-.23,4.73,0,.52-.07,1-.09,1.28a1.88,1.88,0,0,1-.06.45,2.28,2.28,0,0,1,0-.45c0-.34,0-.76,0-1.29,0-1.16.07-2.77.12-4.73.1-4,.21-9.51.23-15.6s0-11.61-.1-15.61c0-2-.05-3.56-.07-4.73,0-.52,0-.95,0-1.28A2.19,2.19,0,0,1,419.86,434.3Z" style="fill:#263238"></path><path d="M417.83,465.42A19.29,19.29,0,0,0,407.3,451.3c-1.4-.67-3.23-1.11-4.39-.07s-.89,2.92-.33,4.38a16.48,16.48,0,0,0,15.15,10.22" style="fill:#292727"></path><path d="M408,456a5.42,5.42,0,0,1,.89.39,10.23,10.23,0,0,1,1,.53c.38.24.83.47,1.28.81a15.57,15.57,0,0,1,1.47,1.1c.52.41,1,.9,1.56,1.42a21.47,21.47,0,0,1,3,3.81,19.61,19.61,0,0,1,2.45,6.46,16.77,16.77,0,0,1,.25,1.82c.07.56,0,1.07.07,1.51a7.85,7.85,0,0,1,0,1.14,5.44,5.44,0,0,1-.1,1c-.09,0,.06-1.39-.19-3.59a16.55,16.55,0,0,0-.29-1.79,17.57,17.57,0,0,0-.52-2,21.75,21.75,0,0,0-1.94-4.33,23,23,0,0,0-2.89-3.76,19.6,19.6,0,0,0-1.52-1.42A17.68,17.68,0,0,0,411,458C409.21,456.68,407.94,456.1,408,456Z" style="fill:#263238"></path></g><g id="freepik--Character--inject-57"><path d="M186.6,127.94c1.22,0,14.81,3.26,18.63,10s5.46,31.39,5.46,31.39,1.1,17.34-1.27,25.66-10.16,49.22-13,57.52c-3.69,10.65-8.93,28.22-8.93,28.22L142.72,249Z" style="fill:#292727"></path><path d="M200.82,89.5c-1.94,4.18-1.31,9.08-.18,13.54s2.76,8.88,2.73,13.48c-.05,6.77-1.76,16-15.46,11.64-8.35-2.66-.67,22.11-5.18,29.61a12.58,12.58,0,0,1-3.23,4c-3.37,2.4-8,1-11.86-.46-1.24-.47-2.64-1.13-2.92-2.42a4,4,0,0,1,.24-2L185.42,89" style="fill:#263238"></path><path d="M177.53,142.36c7.86-1.85,10.27-5.76,10.37-12.67l.12-8.79s8.69-.45,10.72-13.4A128.89,128.89,0,0,0,200.06,82c-.51-7.76-8.58-21.46-16.31-20.62L162.5,71.74a4.54,4.54,0,0,0-4.06,4.62h0l1.65,50.21" style="fill:#ffbea9"></path><path d="M195.09,91a1.67,1.67,0,0,1-1.6,1.68,1.59,1.59,0,0,1-1.72-1.49,1.67,1.67,0,0,1,1.6-1.68A1.6,1.6,0,0,1,195.09,91Z" style="fill:#263238"></path><path d="M197.77,88c-.15.28-1.61-.47-3.36-.09s-2.8,1.64-3,1.44,0-.56.44-1.13a4.23,4.23,0,0,1,2.37-1.44,4.15,4.15,0,0,1,2.74.36C197.56,87.43,197.84,87.82,197.77,88Z" style="fill:#263238"></path><path d="M177.93,90.82a1.66,1.66,0,0,1-1.59,1.68,1.6,1.6,0,0,1-1.72-1.5,1.67,1.67,0,0,1,1.6-1.68A1.59,1.59,0,0,1,177.93,90.82Z" style="fill:#263238"></path><path d="M180.07,89.79c-.28.17-1.31-1.23-3.17-1.76s-3.52,0-3.65-.26c-.07-.14.27-.5,1-.78a4.81,4.81,0,0,1,3-.09,4.68,4.68,0,0,1,2.44,1.7C180.13,89.23,180.2,89.71,180.07,89.79Z" style="fill:#263238"></path><path d="M186.73,101.13a11.38,11.38,0,0,1,2.91-.53c.45,0,.88-.14,1-.45a2.34,2.34,0,0,0-.31-1.36c-.43-1.1-.88-2.26-1.36-3.47-1.88-4.94-3.25-9-3.05-9.08s1.89,3.87,3.78,8.82l1.3,3.49a2.67,2.67,0,0,1,.24,1.79,1.15,1.15,0,0,1-.75.67,3.39,3.39,0,0,1-.77.11A11.88,11.88,0,0,1,186.73,101.13Z" style="fill:#263238"></path><path d="M188,121a32.93,32.93,0,0,1-17.35-4.59s4.34,9.25,17.3,8Z" style="fill:#e4977c"></path><path d="M186.45,105.47A4.79,4.79,0,0,0,183,103.2a2.06,2.06,0,0,0-2,1.12,3.23,3.23,0,0,0,.29,3A2.72,2.72,0,0,0,184,108.6a4.59,4.59,0,0,0,2.23-1.45,1.63,1.63,0,0,0,.46-.65,1.13,1.13,0,0,0-.15-.93" style="fill:#e4977c"></path><path d="M181.48,102.37c.29,0,.3,1.93,2,3.3s3.73,1.15,3.74,1.42-.46.38-1.33.41a4.84,4.84,0,0,1-3.12-1.08,4.21,4.21,0,0,1-1.52-2.77C181.13,102.84,181.35,102.36,181.48,102.37Z" style="fill:#263238"></path><path d="M181.63,81.54c-.22.47-2,.07-4.09.11s-3.85.45-4.09,0c-.1-.22.24-.65,1-1a7.12,7.12,0,0,1,6.22-.07C181.38,80.9,181.73,81.32,181.63,81.54Z" style="fill:#263238"></path><path d="M198.32,84c-.4.4-1.92,0-3.76,0s-3.4.26-3.76-.16c-.15-.21.09-.61.77-1a6.57,6.57,0,0,1,6.06.16C198.28,83.41,198.49,83.83,198.32,84Z" style="fill:#263238"></path><path d="M130.78,131.68c2.82-4.57,11.94-15.51,15.17-23,2.3-5.38,4-24.24,8.94-33.95s10.69-13.64,16.37-15.16a13,13,0,0,1,12.49,2.83c2.56,2.29,3.43,9,3.43,9s-13.68,3.05-18.29,10.85c-5.29,9-6.58,13.47-6.58,13.47l-1.71,4.91s1.6,9.49,2.19,14.18-.35,9-4.21,11l-7.77,5.49s4.22,45.37,3.75,45.73c-1.16.88-10.88-1.08-19.67-3.09-1.71-.4-2.64-16.41-2.64-16.41l-2.57,15-6.61-1.5S125,141,130.78,131.68Z" style="fill:#263238"></path><path d="M186.93,71.38a11.12,11.12,0,0,1,11.36,8c1.31,4,2.3,15.54,2.3,15.54s1.15-9.17.73-14.4-3-11.85-7-15.51-7.19-5.24-14.16-4.82a12.35,12.35,0,0,1,4.56,3.91C185.56,65.44,185.78,66.41,186.93,71.38Z" style="fill:#263238"></path><path d="M162.41,96.33A3.94,3.94,0,0,0,156.66,93c-1.36.79-2.41,2.38-2.28,5.42.33,8.11,8.41,6.1,8.41,5.87S162.57,99.68,162.41,96.33Z" style="fill:#ffbea9"></path><path d="M160.19,101.3s-.14.1-.37.22a1.41,1.41,0,0,1-1.06.07c-.87-.28-1.65-1.61-1.75-3.07a4.64,4.64,0,0,1,.32-2,1.62,1.62,0,0,1,1-1.13.71.71,0,0,1,.85.35c.12.22.08.39.12.4s.17-.14.09-.48a.92.92,0,0,0-.34-.49,1,1,0,0,0-.79-.17,2,2,0,0,0-1.42,1.31,4.74,4.74,0,0,0-.4,2.28c.12,1.64,1,3.13,2.2,3.42a1.49,1.49,0,0,0,1.29-.27C160.18,101.49,160.22,101.31,160.19,101.3Z" style="fill:#e4977c"></path><path d="M158.17,70.06a58.29,58.29,0,0,0-9.95,23.61c-1,5.33-1.28,11.09-4.51,15.44-1.7,2.29-4.13,4-5.38,6.6-1.36,2.78-1.16,6.18-2.76,8.84-1.74,2.89-5.2,4.26-7.46,6.76-4.27,4.72-3.32,12-5.06,18.11a20.42,20.42,0,0,1-6.52,10c-1.06.89-2.36,2.05-2,3.38a3.15,3.15,0,0,0,1.78,1.67c2.45,1.26,4.71,6,7.42,6.56.56-14.58,7.64-32.09,15.31-44.5,4.38-7.09,9.22-14.17,10.95-22.31,1.13-5.37.86-10.92,1.46-16.38s2.27-11.12,6.39-14.74" style="fill:#263238"></path><path d="M155.74,106.48c-.1.12-.84-.23-1.82-1.31a10.45,10.45,0,0,1-1.81-10.06,14.42,14.42,0,0,1,2.49-4.3,34.52,34.52,0,0,1,3.71-3.75,55.38,55.38,0,0,1,4.35-3.5,56.52,56.52,0,0,1,9.26-5.5c3-1.42,5.78-2.33,7.93-3.37a17.84,17.84,0,0,0,4.67-3c1-.89,1.43-1.5,1.6-1.41s0,.87-.84,2.08a14.13,14.13,0,0,1-4.57,4c-2.18,1.31-4.93,2.43-7.73,3.89a70.28,70.28,0,0,0-8.79,5.45c-1.48,1.08-2.88,2.2-4.2,3.32a36.24,36.24,0,0,0-3.55,3.38,13.13,13.13,0,0,0-2.32,3.52,9.24,9.24,0,0,0-.71,3.51,11.18,11.18,0,0,0,1.34,5.2C155.39,105.73,155.88,106.33,155.74,106.48Z" style="fill:#263238"></path><path d="M159,106.84a1.56,1.56,0,0,1-.4-.19,6.69,6.69,0,0,1-1.07-.69,9.93,9.93,0,0,1-2.85-3.66,10.19,10.19,0,0,1-.7-6.84,13.87,13.87,0,0,1,4.86-6.86,70.78,70.78,0,0,1,6.91-4.83c2.2-1.37,4.22-2.53,5.94-3.46s3.13-1.63,4.12-2.1c.5-.23.88-.41,1.15-.52a1.81,1.81,0,0,1,.42-.15,11.27,11.27,0,0,1-1.48.85c-.95.52-2.34,1.27-4,2.24s-3.69,2.16-5.86,3.55A77.19,77.19,0,0,0,159.22,89a13.46,13.46,0,0,0-4.73,6.6,9.87,9.87,0,0,0,.56,6.55,10.46,10.46,0,0,0,2.65,3.66C158.53,106.51,159.07,106.79,159,106.84Z" style="fill:#455a64"></path><path d="M175.14,59a5.42,5.42,0,0,1,2.66.18,14.23,14.23,0,0,1,5.7,3,10.69,10.69,0,0,1,3.31,5.52,9.23,9.23,0,0,1,.24,1.94,1.8,1.8,0,0,1-.07.72c-.09,0-.08-1-.53-2.57a11.19,11.19,0,0,0-3.29-5.22,15.91,15.91,0,0,0-5.46-3A25.93,25.93,0,0,0,175.14,59Z" style="fill:#455a64"></path><path d="M154.59,103.23s-.37.38-.94,1.14a8.18,8.18,0,0,0-1.49,3.64,7.78,7.78,0,0,0,1.33,5.55,6.64,6.64,0,0,0,6.06,3,5.41,5.41,0,0,0,3.22-1.54,6.2,6.2,0,0,0,1.53-3,9.24,9.24,0,0,0-.5-5.74,5.34,5.34,0,0,0-2.76-2.68,9.87,9.87,0,0,0-1.42-.37,1.3,1.3,0,0,1,.39,0,3.86,3.86,0,0,1,1.1.21,5.43,5.43,0,0,1,3,2.71,9.44,9.44,0,0,1,.64,6,6.64,6.64,0,0,1-1.64,3.24,5.73,5.73,0,0,1-3.51,1.7,6.47,6.47,0,0,1-3.83-.75,7.78,7.78,0,0,1-2.7-2.44,8.13,8.13,0,0,1-1.3-5.88,8,8,0,0,1,1.7-3.7,6.7,6.7,0,0,1,.78-.8A1.19,1.19,0,0,1,154.59,103.23Z" style="fill:#e0e0e0"></path><polygon points="122.81 455.73 128.5 431.07 108.48 427.72 108.48 445.75 114.05 453.96 122.81 455.73" style="fill:#ffbea9"></polygon><path d="M124.66,454.55l-.68,1.07s13.47,18.77,11.48,22.32l-35.8-23,8.15-11.6A24.38,24.38,0,0,0,124.66,454.55Z" style="fill:#292727"></path><g style="opacity:0.6000000000000001"><path d="M109,449.45a1.75,1.75,0,0,0-2.09,1,1.67,1.67,0,0,0,1,2.07,1.84,1.84,0,0,0,2.21-1.09,1.74,1.74,0,0,0-1.27-2" style="fill:#fff"></path></g><g style="opacity:0.6000000000000001"><path d="M99.66,454.91l2-2.79,33.59,23.1s1.15,1.72.25,2.72Z" style="fill:#fff"></path></g><path d="M124,455.8c-.11.17-1-.31-2.26-.31s-2.15.45-2.27.28.8-1,2.27-1S124.19,455.66,124,455.8Z" style="fill:#263238"></path><path d="M126.8,459.77c-.07.19-1,0-2.09.36s-1.74,1-1.91.91.36-1.18,1.69-1.6S126.9,459.6,126.8,459.77Z" style="fill:#263238"></path><path d="M126,465.63c-.18-.06.14-1.09,1.2-1.76s2.13-.52,2.11-.33-.86.38-1.72.94S126.23,465.73,126,465.63Z" style="fill:#263238"></path><polygon points="73.65 299.71 91.59 302.12 84.69 321.91 65.44 315.29 64.35 307.98 73.65 299.71" style="fill:#ffbea9"></polygon><path d="M67.34,316.63l-1.09-.45S51.07,331.33,47.52,330l15.74-36.26,11.85,5.74A22.56,22.56,0,0,0,67.34,316.63Z" style="fill:#292727"></path><g style="opacity:0.6000000000000001"><path d="M69.66,301.51a1.63,1.63,0,0,0-1.25-1.76A1.56,1.56,0,0,0,66.66,301,1.71,1.71,0,0,0,68,302.83c.79.05,1.75-.68,1.68-1.47" style="fill:#fff"></path></g><g style="opacity:0.6000000000000001"><path d="M63.26,293.78l2.85,1.38L50,329.4s-1.41,1.31-2.46.64Z" style="fill:#fff"></path></g><path d="M66.1,316.26c-.18-.08.13-1-.06-2.12s-.74-1.91-.6-2,1,.58,1.26,1.93S66.24,316.37,66.1,316.26Z" style="fill:#263238"></path><path d="M62.87,319.38c-.18,0-.15-.93-.64-1.86s-1.2-1.44-1.12-1.62,1.13.15,1.72,1.32S63,319.45,62.87,319.38Z" style="fill:#263238"></path><path d="M57.39,319.56c0-.18,1,0,1.79.84s.8,1.87.62,1.88-.48-.73-1.12-1.44S57.33,319.75,57.39,319.56Z" style="fill:#263238"></path><path d="M172.28,280.73c-1.59.78-21.64,78.07-27.95,81.26l-12.78,62.84a5.42,5.42,0,0,1,.88,4.07c-.29,2.76-1.46,3.2-1.46,3.2s-18.45,2.33-25.86-3.05c0,0,.87-5.52,1.31-6s2.18-50.28,6.68-61.9,10.46-48.39,9.88-55.8-2.61-24.7-2.18-30.22a52,52,0,0,1,2.33-11.05Z" style="fill:#263238"></path><path d="M180.24,283.85s-6.8,46.6-12.67,54.18-13.85,7.78-15.75,8.1-71-25.22-71-25.22S79.74,302.1,82,299.29c0,0,6.17.28,7.58,2.25l35.93,5,13.19-40.14Z" style="fill:#263238"></path><path d="M168.45,283.77a5.24,5.24,0,0,1-.15.8c-.13.57-.31,1.33-.53,2.28-.49,2-1.18,4.87-2,8.37l-6.88,27.54c-2.67,10.76-5.45,20.45-8.19,27.2-1.34,3.38-2.58,6.06-3.5,7.87-.45.91-.85,1.6-1.1,2.07a4.11,4.11,0,0,1-.42.7,5.66,5.66,0,0,1,.33-.75c.22-.49.59-1.19,1-2.11.87-1.84,2-4.53,3.35-7.91,2.64-6.77,5.36-16.43,8-27.2l7-27.5c.91-3.48,1.66-6.31,2.19-8.33.26-.94.46-1.69.62-2.25A4.44,4.44,0,0,1,168.45,283.77Z" style="fill:#455a64"></path><path d="M120.92,273.92s0,.25-.07.7a18.35,18.35,0,0,0-.06,2c0,1.76.19,4.29.46,7.43s.65,6.87,1,11,1,8.69,1,13.51c.12,9.69-2.07,18.23-3.39,24.35-.66,3-1.21,5.5-1.59,7.27l-.43,2a3.68,3.68,0,0,1-.19.69,3.31,3.31,0,0,1,.08-.7c.09-.51.2-1.18.34-2,.3-1.74.79-4.24,1.43-7.32,1.23-6.15,3.35-14.66,3.23-24.26,0-4.79-.69-9.32-1-13.47s-.66-7.86-.93-11-.34-5.69-.29-7.45a13.41,13.41,0,0,1,.15-2A2.69,2.69,0,0,1,120.92,273.92Z" style="fill:#455a64"></path><path d="M88.85,301.26c.07,0-.33,1.19-.87,3.09a55.78,55.78,0,0,0-2.19,15.2,31.91,31.91,0,0,1,0,3.2,3.11,3.11,0,0,1-.16-.85c-.07-.55-.13-1.36-.17-2.35a43.6,43.6,0,0,1,2.21-15.31c.32-.94.6-1.7.83-2.2S88.81,301.25,88.85,301.26Z" style="fill:#455a64"></path><path d="M70.22,318.47c0,.15-.09.26-.2.26s-.19-.11-.19-.26.09-.26.19-.26A.24.24,0,0,1,70.22,318.47Z" style="fill:#455a64"></path><path d="M106.88,422.11a34.91,34.91,0,0,1,3.64.52c2.24.35,5.35.8,8.79,1.15s6.57.53,8.84.63a33.75,33.75,0,0,1,3.67.22,3.45,3.45,0,0,1-1,.1c-.64,0-1.56,0-2.69,0-2.28,0-5.43-.14-8.88-.49s-6.57-.85-8.8-1.3c-1.12-.22-2-.42-2.63-.58A3.41,3.41,0,0,1,106.88,422.11Z" style="fill:#455a64"></path><path d="M178.62,287.74c.22-.14,13.13,0,13.13,0s9.66-47.08,10.81-61.51S179,232.92,179,232.92Z" style="fill:#292727"></path><path d="M161.19,123.66s12.54,0,19.91,16.39c0,0,22.22,38.74,22.73,55.28,0,0-.26,24.54-4.39,39s-16,52.8-16,52.8-37.19-3.2-44.68-8.63-24-4.65-24-4.65,10.08-30.74,22.48-49.33,7.49-51.67,7.49-51.67S141.21,123.81,161.19,123.66Z" style="fill:#292727"></path><path d="M179,286.7a3.38,3.38,0,0,1,.6,0c.39,0,1,0,1.74,0,1.53,0,3.76-.09,6.56-.36l-.13.1c2.59-9.08,6.85-24.59,10.45-42.45a269.77,269.77,0,0,0,5.2-36.83c.27-4.75.27-8.61.18-11.27-.06-1.3-.11-2.32-.14-3.06,0-.33,0-.59,0-.8a1.1,1.1,0,0,1,0-.27.84.84,0,0,1,0,.27c0,.2,0,.47.07.79q.09,1.11.24,3.06c.15,2.67.21,6.53,0,11.3a253.91,253.91,0,0,1-5.06,36.91c-3.61,17.89-8,33.38-10.68,42.43l0,.1H188a58,58,0,0,1-6.59.23c-.77,0-1.35-.06-1.75-.11A2.21,2.21,0,0,1,179,286.7Z" style="fill:#263238"></path><path d="M187.86,130.71c.08-1.4,13.78,20.09,17.35,42.76,1.29,8.15-1.75,18.34-1.75,18.34l-25.7-57.71S187.18,143.35,187.86,130.71Z" style="fill:#e0e0e0"></path><path d="M169.05,126.06a18.85,18.85,0,0,1,3,2.68,15,15,0,0,1,2.61,3.93c.78,1.67,1.45,3.64,2.27,5.78v.07a18.61,18.61,0,0,0,1.09,5.8,42.05,42.05,0,0,0,2.79,6.11c2.28,4.13,4.75,8.67,7.14,13.5a275.44,275.44,0,0,1,12,27.9c1.34,3.65,2.33,6.63,3,8.7l.74,2.39a5.06,5.06,0,0,1,.22.85s-.12-.28-.32-.82-.48-1.36-.83-2.36c-.73-2-1.77-5-3.15-8.63-2.75-7.26-6.83-17.19-12.12-27.8-2.38-4.82-4.83-9.34-7.1-13.5a41.43,41.43,0,0,1-2.78-6.2,18.69,18.69,0,0,1-1.06-5.94v.07c-.8-2.15-1.45-4.13-2.19-5.79a15.25,15.25,0,0,0-2.48-3.91,26.28,26.28,0,0,0-2.08-2.11l-.57-.53A1.44,1.44,0,0,1,169.05,126.06Z" style="fill:#263238"></path><path d="M186.39,212s.21,0,.54.13a2.38,2.38,0,0,1,1,1.13,2.61,2.61,0,0,1,0,2.29,2.63,2.63,0,0,1-4.71-.46,2.67,2.67,0,0,1,.46-2.26A2.43,2.43,0,0,1,185,212c.36-.09.56,0,.56,0a3,3,0,0,0-1.51,1.12,2.38,2.38,0,0,0-.3,1.91,2,2,0,0,0,1.8,1.33,2,2,0,0,0,2-.95,2.34,2.34,0,0,0,.07-1.93A3,3,0,0,0,186.39,212Z" style="fill:#263238"></path><path d="M154.15,215.79s-.64-.23-1.79-.61a14.8,14.8,0,0,0-2.12-.56,6.49,6.49,0,0,0-2.83.07,4.39,4.39,0,0,0-2.61,2.06,27.19,27.19,0,0,0-1.63,3.7l-3.47,8.69c-.34.83-.67,1.65-1,2.43l-.25-.35a30.21,30.21,0,0,1,14.79,3.42,27.39,27.39,0,0,1,3.85,2.43c.43.31.74.59,1,.77s.31.28.3.3a16,16,0,0,1-1.37-.92,32.25,32.25,0,0,0-3.9-2.27,31.09,31.09,0,0,0-14.61-3.22l-.4,0,.15-.37,1-2.44c1.24-3.07,2.42-6,3.51-8.67a25.81,25.81,0,0,1,1.7-3.75,5.65,5.65,0,0,1,1.28-1.42,4.91,4.91,0,0,1,1.6-.77,6.53,6.53,0,0,1,3,0,11.83,11.83,0,0,1,2.13.65c.57.22,1,.42,1.29.56A1.88,1.88,0,0,1,154.15,215.79Z" style="fill:#263238"></path><path d="M203.79,204.47s0-.12,0-.36l.14-1.06c.15-1,.36-2.33.61-4,.56-3.51,1.35-8.43,2.29-14.33v0c.12-3,.26-6.24.33-9.69a53,53,0,0,0-.19-5.3c-.05-.91-.15-1.81-.28-2.73s-.25-1.84-.43-2.76a68,68,0,0,0-4.67-15A70.3,70.3,0,0,0,195.45,138a63,63,0,0,0-5.36-6.82c-.68-.76-1.26-1.31-1.63-1.71a6.16,6.16,0,0,1-.55-.61,3.84,3.84,0,0,1,.62.54c.39.37,1,.9,1.71,1.64a57.39,57.39,0,0,1,5.51,6.75,70.29,70.29,0,0,1,11,26.4c.18.93.33,1.86.43,2.78s.24,1.85.28,2.76a51,51,0,0,1,.18,5.35c-.08,3.46-.24,6.72-.38,9.7h0v0c-1,5.88-1.87,10.79-2.48,14.29-.31,1.69-.55,3-.73,4-.08.43-.15.77-.21,1.05A1.35,1.35,0,0,1,203.79,204.47Z" style="fill:#263238"></path><path d="M161.06,126.06c3.51,0,12.52,6.83,13,24.4.48,17.08-.63,48-.63,48l14.22,64c.42.63-13.82,8.16-20.11,6.55,0,0-16.38-57.78-17.78-64.91s-4.44-40.29-3.27-47.77S145.87,126.09,161.06,126.06Z" style="fill:#292727"></path><path d="M169.28,262.07a1.46,1.46,0,1,0,.25.23" style="fill:#e0e0e0"></path><path d="M169.53,262.3s.15,0,.28.23a1.47,1.47,0,0,1,.2,1,1.71,1.71,0,0,1-.82,1.26,1.7,1.7,0,0,1-2.32-2.05,1.72,1.72,0,0,1,1.16-1,1.42,1.42,0,0,1,1,.09c.22.1.29.22.27.24s-.47-.23-1.15,0a1.38,1.38,0,0,0-.81.78,1.15,1.15,0,0,0,.39,1.22,1.17,1.17,0,0,0,1.26.24,1.38,1.38,0,0,0,.67-.9A2.12,2.12,0,0,0,169.53,262.3Z" style="fill:#263238"></path><path d="M167.89,258.28a1.22,1.22,0,1,0,.23,2.1,1.28,1.28,0,0,0-.23-2.1" style="fill:#e0e0e0"></path><path d="M167.89,258.28s.13,0,.31.08a1.27,1.27,0,0,1,.51.72,1.49,1.49,0,0,1-.26,1.32,1.47,1.47,0,0,1-2.5-1.1,1.45,1.45,0,0,1,.79-1.08,1.26,1.26,0,0,1,.88-.11c.2.06.28.15.27.17s-.45-.09-1,.26a1.12,1.12,0,0,0-.5.81,1,1,0,0,0,1.66.73,1.14,1.14,0,0,0,.26-.92C168.26,258.55,167.84,258.35,167.89,258.28Z" style="fill:#263238"></path><path d="M166.9,254.44a1.22,1.22,0,1,0,.23,2.1,1.28,1.28,0,0,0-.23-2.1" style="fill:#e0e0e0"></path><path d="M166.9,254.44s.13,0,.31.08a1.27,1.27,0,0,1,.51.72,1.46,1.46,0,0,1-.26,1.32,1.47,1.47,0,0,1-2.5-1.1,1.46,1.46,0,0,1,.8-1.08,1.25,1.25,0,0,1,.87-.12c.2.06.28.16.27.18s-.45-.09-1,.26a1.1,1.1,0,0,0-.5.8.93.93,0,0,0,.61.88,1,1,0,0,0,1.06-.14,1.13,1.13,0,0,0,.25-.92C167.28,254.71,166.86,254.51,166.9,254.44Z" style="fill:#263238"></path><path d="M146.72,154.64s0,.2,0,.59,0,1,0,1.75c0,1.54.07,3.8.21,6.73.27,5.85.84,14.31,1.67,24.81q.33,3.93.68,8.24c.13,1.43.25,2.89.38,4.38,0,.38.07.75.1,1.13l.05.56.12.54c.14.73.35,1.48.53,2.23,1.54,6,3.31,12.42,5.16,19.18l12.23,44.13-.22-.19a22.34,22.34,0,0,0,7.51-.69,39.73,39.73,0,0,0,12.42-5.8l-.1.26c-5.31-24-10.15-45.73-14-63.11v0c.6-14.09,1.08-25.58,1.42-33.56.18-4,.32-7.07.42-9.19q.08-1.56.12-2.4c0-.54.07-.82.07-.82s0,.28,0,.82,0,1.36-.06,2.4c-.07,2.13-.18,5.23-.31,9.2-.3,8-.72,19.47-1.24,33.57v-.06l14.12,63.09,0,.17-.13.09a40.11,40.11,0,0,1-12.6,5.89,22.85,22.85,0,0,1-7.69.71l-.18,0-.05-.17c-4.34-15.73-8.46-30.64-12.19-44.15-1.83-6.76-3.58-13.17-5.11-19.2-.18-.75-.38-1.49-.53-2.26l-.12-.57-.05-.57-.09-1.12c-.13-1.49-.25-3-.37-4.39-.22-2.87-.44-5.62-.64-8.25-.79-10.49-1.31-19-1.52-24.82-.11-2.93-.13-5.2-.11-6.74,0-.77.06-1.36.08-1.75S146.72,154.64,146.72,154.64Z" style="fill:#263238"></path><path d="M198.28,273a5.41,5.41,0,0,0-.19-.9v-.05h0a6.25,6.25,0,0,0-1-1.91c-1.9-2.45-11.47-6.3-12-6.06l-9,3.94s.24.28,1.79,2.62a1.51,1.51,0,0,0,.94.75h0s13,1.34,14.61,3.12-1.56,6.55-1.56,6.55a9.66,9.66,0,0,0-1.24,3.49,1.28,1.28,0,0,0,.27,1.21c.47.38,1.14,0,1.61-.38l4.38-3.5a5.74,5.74,0,0,0,1.6-1.66,5.09,5.09,0,0,0,.5-1.84A15.14,15.14,0,0,0,198.28,273Z" style="fill:#ffbea9"></path></g><g id="freepik--Cart--inject-57"><path d="M428,235.8l-49.86-36.44a17.39,17.39,0,0,0-13.8-3L232,223.9a17.38,17.38,0,0,0-13.44,20.72L239,338.15a17.39,17.39,0,0,0,20.72,13.28l131.56-28.95a17.33,17.33,0,0,0,11.54-8.67L433,258.14A17.39,17.39,0,0,0,428,235.8Zm-21.59,23.91a10.78,10.78,0,1,1-8.75-12.48A10.79,10.79,0,0,1,406.43,259.71Z" style="fill:#292727"></path><g style="opacity:0.4"><path d="M428,235.8l-49.86-36.44a17.39,17.39,0,0,0-13.8-3L232,223.9a17.38,17.38,0,0,0-13.44,20.72L239,338.15a17.39,17.39,0,0,0,20.72,13.28l131.56-28.95a17.33,17.33,0,0,0,11.54-8.67L433,258.14A17.39,17.39,0,0,0,428,235.8Zm-21.5,23.81a10.9,10.9,0,0,1-12.62,8.86A10.78,10.78,0,1,1,398,247.29,10.4,10.4,0,0,1,406.52,259.61Z"></path></g><path d="M423.62,232.73,373.76,196.3a17.36,17.36,0,0,0-13.8-3L227.61,220.83a17.39,17.39,0,0,0-13.44,20.73l20.39,93.52a17.39,17.39,0,0,0,20.72,13.28l131.56-28.94a17.34,17.34,0,0,0,11.54-8.68l30.25-55.67A17.39,17.39,0,0,0,423.62,232.73Zm-21.69,24a10.65,10.65,0,1,1-8.65-12.33A10.66,10.66,0,0,1,401.93,256.75Z" style="fill:#292727"></path><path d="M342.36,181.59c-.08,0-4.31-11.39-9.44-25.5s-9.22-25.58-9.14-25.61,4.31,11.38,9.44,25.5S342.45,181.56,342.36,181.59Z" style="fill:#263238"></path><path d="M378.11,106.45a.76.76,0,0,1,0,.2c0,.14-.05.33-.08.56-.09.52-.2,1.24-.35,2.17-.3,1.91-.74,4.62-1.28,8-1.08,6.74-2.51,16.05-4,26.35s-2.61,19.66-3.42,26.43c-.4,3.37-.72,6.11-.95,8-.11.93-.2,1.66-.26,2.18l-.08.57c0,.13,0,.19,0,.19s0-.07,0-.19,0-.34,0-.57l.21-2.19c.18-1.9.47-4.64.85-8,.75-6.78,1.89-16.14,3.33-26.45S375,124,376.17,117.32c.56-3.37,1-6.08,1.38-8,.17-.92.31-1.65.4-2.16.05-.23.09-.42.11-.56S378.11,106.45,378.11,106.45Z" style="fill:#263238"></path><path d="M423.67,145.12c.07,0-7.09,8.66-16,19.22s-16.17,19.07-16.24,19,7.09-8.67,16-19.23S423.6,145.06,423.67,145.12Z" style="fill:#263238"></path><path d="M321.94,188.29c-.06.07-4.31-3.46-9.49-7.88s-9.34-8.06-9.28-8.12,4.31,3.46,9.49,7.88S322,188.23,321.94,188.29Z" style="fill:#263238"></path><path d="M431.13,199.48c0,.09-5.6-.24-12.5-.73s-12.48-1-12.47-1.05,5.6.24,12.5.73S431.14,199.39,431.13,199.48Z" style="fill:#263238"></path><path d="M266.28,279.88c1,4.38-1.92,7.69-8.58,9.18L244.6,292l-5.67-25.33,12.38-2.77c6.33-1.42,10.18.5,11.06,4.44a6.22,6.22,0,0,1-2.12,6.32A6.41,6.41,0,0,1,266.28,279.88Zm-20.53-10.11,1.33,6,5.83-1.3c2.86-.64,4.19-2,3.74-4s-2.22-2.62-5.08-2Zm14.5,10.81c-.48-2.13-2.34-2.78-5.37-2.1L248,280l1.4,6.26,6.84-1.53C259.32,284.06,260.73,282.75,260.25,280.58Z" style="fill:#fff"></path><path d="M266.61,260.47l5.86-1.31,4.6,20.55,12.7-2.84,1.07,4.77-18.56,4.16Z" style="fill:#fff"></path><path d="M309.81,271.7l-11.76,2.63-1,5.93-6,1.34,5.62-27.85,5.79-1.29,17,22.79-6.15,1.38Zm-2.84-4-6.18-8.8-1.85,10.6Z" style="fill:#fff"></path><path d="M317.27,262.43c-1.7-7.63,2.94-14.41,10.82-16.17a13.41,13.41,0,0,1,11.43,2.16l-3,4.31a8.34,8.34,0,0,0-7-1.54,8.31,8.31,0,1,0,3.63,16.21,8.27,8.27,0,0,0,5.69-4.43l4.54,2.63c-1.73,3.47-5,5.88-9.44,6.87C326.07,274.22,319,270.07,317.27,262.43Z" style="fill:#fff"></path><path d="M355.22,256.8l-2.61,4.31,1.43,6.4-5.82,1.3-5.67-25.33,5.83-1.3L351,254l8.57-14.34,6.51-1.45-8,13.63,14.25,11.56-6.84,1.53Z" style="fill:#fff"></path><path d="M278.43,249.94l.49-2.35a7.39,7.39,0,0,0,4.33.37c1.68-.37,2.24-1.09,2.07-1.84-.51-2.3-7.29.88-8.31-3.68-.46-2.09.83-4.2,4.32-5a8.41,8.41,0,0,1,4.5.14l-.4,2.35a7,7,0,0,0-3.61-.21c-1.68.38-2.19,1.16-2,1.93.51,2.26,7.29-.9,8.3,3.61.46,2.05-.85,4.18-4.36,5A8.91,8.91,0,0,1,278.43,249.94Z" style="fill:#fff"></path><path d="M298.34,244l-5.7,1.27-.5,2.88-2.91.65L292,235.3l2.8-.62,8.23,11-3,.67ZM297,242l-3-4.26-.9,5.13Z" style="fill:#fff"></path><path d="M301.53,233.16l2.83-.63,2.23,9.95,6.15-1.37.52,2.31-9,2Z" style="fill:#fff"></path><path d="M323.84,238.66l.51,2.28-9.5,2.13-2.74-12.27,9.27-2.08.51,2.28-6.45,1.45.6,2.66,5.69-1.27.5,2.2-5.7,1.28.64,2.84Z" style="fill:#fff"></path><path d="M276.07,297.78l1.2,5.33L286.6,301l.84,3.74-9.34,2.09,1.65,7.35-4.67,1-4.51-20.16,15.24-3.41.84,3.74Z" style="fill:#fff"></path><path d="M299,293.38l.93,4.15c-.38.05-.68.09-1,.16-2.48.56-3.82,2.28-3.16,5.25l1.64,7.32-4.49,1-3.47-15.5,4.29-1,.46,2.05C294.93,295.1,296.6,293.91,299,293.38Z" style="fill:#fff"></path><path d="M300.13,288.46a2.64,2.64,0,0,1,2.24-3.13,2.58,2.58,0,0,1,3.33,1.8,2.88,2.88,0,0,1-5.57,1.33Zm1.59,4.55,4.5-1,3.47,15.51-4.5,1Z" style="fill:#fff"></path><path d="M324.87,281.66,329.65,303l-4.29,1-.4-1.79a6.08,6.08,0,0,1-4.39,3.1c-4.38,1-8.44-1.38-9.53-6.25s1.58-8.73,6-9.71a6.12,6.12,0,0,1,5.06.83l-1.68-7.52Zm-1.36,14.61c-.6-2.68-2.69-3.9-4.91-3.41s-3.61,2.51-3,5.19,2.69,3.9,4.94,3.4S324.11,299,323.51,296.27Z" style="fill:#fff"></path><path d="M345.54,290.2l2,8.84-4.21.94-.43-1.93c-.52,1.6-2,2.71-4.24,3.22-3.63.82-6.24-.72-6.84-3.4s.89-5.07,5.62-6.13l3.57-.8c-.43-1.93-1.84-2.79-4.26-2.25a7.61,7.61,0,0,0-4.14,2.44l-2.32-2.78a12.19,12.19,0,0,1,6.27-3.37C341.26,283.92,344.49,285.5,345.54,290.2Zm-3.61,4.95-.36-1.58-3.08.69c-2.1.47-2.59,1.39-2.36,2.43s1.37,1.66,3,1.31A3.41,3.41,0,0,0,341.93,295.15Z" style="fill:#fff"></path><path d="M363.22,279.26l-3.33,18c-.66,4.08-2.54,5.68-5.33,6.3a7.07,7.07,0,0,1-4.64-.44l.93-3.57a4.07,4.07,0,0,0,2.75.41c1.24-.27,1.81-1,2.1-2.49l0-.16-10.21-14.12,4.64-1,6.71,9.54,2-11.5Z" style="fill:#fff"></path><g style="opacity:0.30000000000000004"><path d="M239.65,240.73c-.63-2.82.59-5.07,3-5.62s4.54.94,5.17,3.79-.61,5.07-3.06,5.62S240.28,243.55,239.65,240.73Zm6.2-1.39c-.42-1.91-1.45-2.81-2.77-2.51s-1.87,1.57-1.44,3.46,1.5,2.8,2.77,2.52S246.28,241.26,245.85,239.34ZM253,233l2.4-.54-7.88,19.78-2.4.54Zm-.32,13.32c-.63-2.81.59-5.07,3-5.62s4.54,1,5.17,3.79-.61,5.08-3.06,5.63S253.34,249.12,252.71,246.3Zm6.2-1.38c-.42-1.89-1.48-2.81-2.78-2.52s-1.86,1.55-1.43,3.46,1.47,2.81,2.77,2.52S259.33,246.8,258.91,244.92Z" style="fill:#fff"></path></g><g style="opacity:0.30000000000000004"><path d="M339,223c-.63-2.82.6-5.07,3.05-5.62s4.53.94,5.17,3.78-.62,5.08-3.07,5.63S339.58,225.84,339,223Zm6.21-1.39c-.43-1.91-1.46-2.81-2.78-2.52s-1.86,1.58-1.44,3.46,1.5,2.81,2.78,2.52S345.58,223.54,345.16,221.63Zm7.17-6.36,2.4-.54-7.88,19.78-2.4.53ZM352,228.59c-.63-2.82.59-5.07,3.05-5.62s4.54,1,5.17,3.78-.62,5.08-3.07,5.63S352.64,231.41,352,228.59Zm6.21-1.39c-.43-1.88-1.48-2.81-2.78-2.52s-1.87,1.56-1.44,3.47,1.48,2.81,2.78,2.52S358.64,229.09,358.22,227.2Z" style="fill:#fff"></path></g><circle cx="332.92" cy="466.73" r="11.58" style="fill:#263238"></circle><circle cx="332.92" cy="466.73" r="6.31" style="fill:#e0e0e0"></circle><path d="M352.92,447.91v7.73l-18,14.47a6.89,6.89,0,0,1-2.77,1.19c-1.33.14-2.58-.61-2.58-2.6,0-3.76,4.69-14.74,4.69-14.74h3.76v-6Z" style="fill:#455a64"></path><path d="M331.91,467.74c-.05,0-.23-.45.28-.95a1.21,1.21,0,0,1,1.15-.22,1.25,1.25,0,0,1,.85,1.17,1.27,1.27,0,0,1-.85,1.18,1.18,1.18,0,0,1-1.15-.23c-.51-.49-.33-1-.28-.95s.09.39.51.66a.86.86,0,0,0,.76.07.78.78,0,0,0,.48-.73.77.77,0,0,0-.48-.72.83.83,0,0,0-.76.07C332,467.35,332,467.76,331.91,467.74Z" style="fill:#263238"></path><path d="M334.3,454a13.22,13.22,0,0,1,2.73-.16c1.69,0,4,0,6.59.05l6.58.21a14.71,14.71,0,0,1,2.72.2,13.58,13.58,0,0,1-2.73.17c-1.68,0-4,0-6.59-.06l-6.57-.21A13.75,13.75,0,0,1,334.3,454Z" style="fill:#263238"></path><circle cx="192.46" cy="466.85" r="11.58" style="fill:#263238"></circle><circle cx="192.46" cy="466.85" r="6.31" style="fill:#e0e0e0"></circle><path d="M212.47,445.82v9.94l-18,14.47a6.89,6.89,0,0,1-2.77,1.19c-1.34.14-2.59-.61-2.59-2.6,0-3.76,4.7-14.74,4.7-14.74h3.75v-8.26Z" style="fill:#455a64"></path><path d="M191.45,467.86s-.22-.45.29-.95a1.18,1.18,0,0,1,1.15-.22,1.23,1.23,0,0,1,0,2.34,1.16,1.16,0,0,1-1.15-.22c-.51-.5-.34-1-.29-.95s.1.39.51.66a.84.84,0,0,0,.76.06.77.77,0,0,0,0-1.44.84.84,0,0,0-.76.06C191.55,467.47,191.53,467.87,191.45,467.86Z" style="fill:#263238"></path><path d="M193.85,454.08a13.58,13.58,0,0,1,2.73-.17c1.68,0,4,0,6.58.06l6.58.21a13.75,13.75,0,0,1,2.73.2,13.58,13.58,0,0,1-2.73.17c-1.69,0-4,0-6.59-.06l-6.58-.21A14.71,14.71,0,0,1,193.85,454.08Z" style="fill:#263238"></path><path d="M247.58,393.87a8.12,8.12,0,0,1-7.67-5.49l-33.8-99.1,179.29,29-4.11,60.52a7.52,7.52,0,0,1-7,7l-126.19,8.1Zm-38.5-102.08,32.72,95.95a6.13,6.13,0,0,0,6.17,4.12l126.19-8.11a5.51,5.51,0,0,0,5.13-5.11l4-58.7Z" style="fill:#455a64"></path><polygon points="214.25 312.62 206.75 306.9 199.34 285.35 192.85 281.59 193.85 279.86 200.99 284 208.44 305.68 215.46 311.03 214.25 312.62" style="fill:#455a64"></polygon><rect x="297.66" y="234.94" width="2" height="171.19" transform="translate(-59.49 572.85) rotate(-82.19)" style="fill:#455a64"></rect><rect x="302.46" y="263.09" width="2" height="159.54" transform="translate(-56.77 625.48) rotate(-86.61)" style="fill:#455a64"></rect><rect x="233.69" y="364.19" width="147.49" height="2" transform="translate(-9.51 8.22) rotate(-1.51)" style="fill:#455a64"></rect><rect x="240.1" y="380.73" width="140.29" height="2" transform="translate(-18.09 15.45) rotate(-2.77)" style="fill:#455a64"></rect><path d="M367.9,384l-2-.17c1.87-22.33,3.13-45,3.72-67.41l2,.06C371,338.86,369.78,361.58,367.9,384Z" style="fill:#455a64"></path><path d="M356.4,385.12l-2,0c0-.47.34-47.43.93-69.7l2,.06C356.74,337.71,356.4,384.64,356.4,385.12Z" style="fill:#455a64"></path><rect x="341.7" y="311.78" width="2" height="73.58" transform="translate(-9.04 9.13) rotate(-1.51)" style="fill:#455a64"></rect><rect x="327.19" y="309.46" width="2" height="77.42" transform="matrix(1, -0.07, 0.07, 1, -24.83, 25.21)" style="fill:#455a64"></rect><rect x="309.67" y="305.58" width="2" height="82.75" transform="translate(-43.43 44.45) rotate(-7.65)" style="fill:#455a64"></rect><rect x="290.41" y="301.15" width="2" height="88.77" transform="translate(-58.51 59.41) rotate(-10.58)" style="fill:#455a64"></rect><rect x="267.95" y="297.12" width="2" height="94.55" transform="translate(-76.37 76.63) rotate(-14.22)" style="fill:#455a64"></rect><rect x="240.64" y="290.67" width="2" height="108.35" transform="translate(-94.78 91.61) rotate(-18.01)" style="fill:#455a64"></rect><path d="M359.05,449.71H359L195.47,447a2.49,2.49,0,0,1-1.76-.77,2.55,2.55,0,0,1-.7-1.8c.08-2.93.5-17.72,1.64-21,.4-1.16,1.08-3.1,28.24-16.41,2.69-1.33,26.42-12.92,29.7-13.1s33.55-1.48,34.83-1.53a2.5,2.5,0,0,1,.21,5c-.31,0-30.87,1.31-34.67,1.51-4.29.92-49,22.4-53.69,26.53-.49,2.12-1,9.48-1.19,16.58l161,2.63a2.5,2.5,0,0,1,0,5Z" style="fill:#455a64"></path><path d="M286.94,445.54,266.17,445c-3.92-.19-6.85-1.36-8.74-3.46s-2.59-4.73-2.39-8.16a18.74,18.74,0,0,1,3-8.94l20.09-29.71,1.66,1.12-20.08,29.7a16.45,16.45,0,0,0-2.71,7.95c-.17,2.87.46,5.13,1.88,6.71s4,2.63,7.32,2.79l20.74.51Z" style="fill:#455a64"></path><path d="M281.17,395.71c-16.73-30.15-60.65-108.94-62.85-111.45-1.33-1.19-12-5-18.46-7.05l.62-1.9c1.74.57,17.07,5.58,19.21,7.49s53,93.57,63.23,111.93Z" style="fill:#455a64"></path><path d="M204.48,276.86l-11,6.69s-12.73-5.76-13.79-7.12-1.36-6.43,3-7.38S204.48,276.86,204.48,276.86Z" style="fill:#455a64"></path><path d="M183.29,273.54s-.09-.19,0-.53a2.08,2.08,0,0,1,.75-1.27,2.21,2.21,0,0,1,2.16-.38,2.3,2.3,0,0,1,0,4.36,2.24,2.24,0,0,1-2.16-.38,2.08,2.08,0,0,1-.75-1.27c-.05-.34,0-.53,0-.53s.06.18.16.48a2,2,0,0,0,.77,1,1.91,1.91,0,0,0,1.78.22,1.85,1.85,0,0,0,0-3.46,1.88,1.88,0,0,0-1.78.22,2.05,2.05,0,0,0-.77,1C183.35,273.35,183.33,273.54,183.29,273.54Z" style="fill:#263238"></path><path d="M195.52,446.6c0-.14,36.54.32,81.6,1s81.61,1.42,81.61,1.56-36.53-.32-81.61-1S195.51,446.74,195.52,446.6Z" style="fill:#263238"></path></g><g id="freepik--Floor--inject-57"><path d="M447.07,478.44c0,.14-89.13.26-199.06.26s-199.08-.12-199.08-.26,89.11-.26,199.08-.26S447.07,478.29,447.07,478.44Z" style="fill:#263238"></path></g><g id="freepik--speech-bubble--inject-57"><path d="M131.15,109.29l-7.78-13.71a36.7,36.7,0,1,0-8.8,9.79h0Z" style="fill:#fff"></path><path d="M131.15,109.29l-16.61-3.8a.11.11,0,0,1-.09-.13l0,0v0l.15.15a36.47,36.47,0,0,1-17.59,7.42,32.61,32.61,0,0,1-5.81.29c-1-.06-2-.08-3-.17l-3.1-.46A36.72,36.72,0,0,1,56.43,67.34a36.23,36.23,0,0,1,7.86-15.08l1.49-1.64c.5-.56,1.08-1,1.62-1.52a20.75,20.75,0,0,1,1.66-1.45l1.76-1.32a15.45,15.45,0,0,1,1.82-1.2L74.5,44l2-1a16.25,16.25,0,0,1,2-.87,37.41,37.41,0,0,1,16.44-2.53,36.1,36.1,0,0,1,15.08,4.46,37.14,37.14,0,0,1,17.41,21.41,39.64,39.64,0,0,1,1.59,11.93,36.56,36.56,0,0,1-1.79,10.3,37.6,37.6,0,0,1-3.68,7.89v-.11l7.69,13.76-7.87-13.66a.09.09,0,0,1,0-.1,37.28,37.28,0,0,0,3.61-7.86,36.57,36.57,0,0,0,1.74-10.23A39.5,39.5,0,0,0,127,65.63a36.93,36.93,0,0,0-17.27-21.17,35.84,35.84,0,0,0-14.92-4.39,37.08,37.08,0,0,0-16.24,2.51,17.84,17.84,0,0,0-2,.87l-1.92.93L72.87,45.5a16,16,0,0,0-1.8,1.19L69.33,48c-.59.42-1.09,1-1.64,1.43s-1.11,1-1.59,1.5l-1.48,1.63a35.68,35.68,0,0,0-7.77,14.9,37.1,37.1,0,0,0-.44,16.12,36.22,36.22,0,0,0,6.11,14,36.74,36.74,0,0,0,22.65,14.61l3.07.47c1,.09,2,.11,3,.17a32.12,32.12,0,0,0,5.76-.27,36.39,36.39,0,0,0,10-2.81,37.17,37.17,0,0,0,7.52-4.47.1.1,0,0,1,.15,0,.11.11,0,0,1,0,.13v0l-.06-.17Z" style="fill:#263238"></path><path d="M81.38,69.4a5.37,5.37,0,0,0-1.83-.47,5.46,5.46,0,0,0-5,1.86c4,2.3,9.36,5.35,13.22,7.56l4.88-2.79C89.11,73.62,84.7,71.19,81.38,69.4Z" style="fill:#292727"></path><g style="opacity:0.30000000000000004"><path d="M81.38,69.4a5.37,5.37,0,0,0-1.83-.47,5.46,5.46,0,0,0-5,1.86c4,2.3,9.36,5.35,13.22,7.56l4.88-2.79C89.11,73.62,84.7,71.19,81.38,69.4Z"></path></g><path d="M96.31,83.48a1.45,1.45,0,0,0-.18-.14c-1.22-.7-2.5-2-3.73-2-.47,0-1,.41-2.18,1.1-2,1.13-5.4,3.12-7.43,4.23-1.73,1-3.84,1.67-5.81,1a8.13,8.13,0,0,1-2.73-1.65l22-12.78c-.11-.33-.23-.64-.33-1a6.31,6.31,0,1,1,5.27,4.26,2.9,2.9,0,0,0-1.47.3c-.84.4-1.62.91-2.62,1.5,1.69.76,2.85,2,4.83,1.79a6,6,0,0,1,6,4.37,6.28,6.28,0,0,1-2.35,7A6.31,6.31,0,0,1,96,84.39C96.06,84.09,96.18,83.81,96.31,83.48Zm5.63-10.15a3,3,0,0,0,3-3.08,3.05,3.05,0,1,0-3,3.08Zm0,16.13a3.07,3.07,0,0,0,3.08-3,3,3,0,0,0-3-3.14,3.08,3.08,0,0,0-3.1,2.94A3.12,3.12,0,0,0,101.9,89.46Z" style="fill:#292727"></path><path d="M93.74,78.24c-.08,0,0-.57-.66-1a1.31,1.31,0,0,0-1.2-.14,1.24,1.24,0,0,0,0,2.32,1.31,1.31,0,0,0,1.2-.14c.61-.45.58-1,.66-1s.07.13,0,.37a1.52,1.52,0,0,1-.52.9,1.57,1.57,0,0,1-1.52.27,1.63,1.63,0,0,1,0-3.08,1.59,1.59,0,0,1,1.52.27,1.52,1.52,0,0,1,.52.9C93.81,78.11,93.76,78.24,93.74,78.24Z" style="fill:#263238"></path><path d="M99.13,77.17a3.94,3.94,0,0,1-.45.3l-1.25.76-4.17,2.45-4.2,2.4-1.28.71a2.38,2.38,0,0,1-.48.24s.16-.11.45-.3L89,83l4.17-2.44,4.19-2.41,1.29-.71A3.36,3.36,0,0,1,99.13,77.17Z" style="fill:#263238"></path><path d="M95.46,73.79s-.07.06-.2.14l-.61.38-2.24,1.36c-1.9,1.14-4.53,2.72-7.48,4.38L77.4,84.33l-2.29,1.28-.63.34c-.15.07-.22.11-.23.1l.21-.13c.18-.12.39-.24.61-.37l2.27-1.33,7.5-4.32c3-1.66,5.59-3.22,7.5-4.34l2.28-1.31.62-.35A1.71,1.71,0,0,1,95.46,73.79Z" style="fill:#263238"></path></g></svg>